# xmcd
#
# Track frame offsets:
# 182
# 17805
# 32675
# 49052
# 64730
# 75357
# 88765
# 101265
# 115885
# 130625
# 146330
# 160617
# 171105
# 191127
# 210892
#
# Disc length: 2959 seconds
#
# Revision: 0
# Processed by: cddbd v1.5.1PL0 Copyright (c) Steve Scherf et al.
# Submitted via: Audion 3.0.2 (http://www.panic.com/audion/)
#
DISCID=b50b8d0f
DTITLE=Various Artist - Ninnoli ciondoli ...
DYEAR=1900
DGENRE=
TTITLE0=Milly-Ninnolo
TTITLE1=-
TTITLE2=-
TTITLE3=L.Tajoli-Come una sigaretta
TTITLE4=L.Virgili-Abat-jour
TTITLE5=-
TTITLE6=G.Meccia-Il Pullover
TTITLE7=-
TTITLE8=Duo Fasano-Aspetto il diretto
TTITLE9=-
TTITLE10=G.Meccia-Il Barattolo
TTITLE11=D.Modugno-La cicoria
TTITLE12=Q.Cetra-Il fonografo a tromba
TTITLE13=E.Jannacci-El purtava i scarp del tennis
TTITLE14=-
EXTD=
EXTT0=
EXTT1=
EXTT2=
EXTT3=
EXTT4=
EXTT5=
EXTT6=
EXTT7=
EXTT8=
EXTT9=
EXTT10=
EXTT11=
EXTT12=
EXTT13=
EXTT14=
PLAYORDER=
